<?xml version="1.0" encoding="UTF-8"?>
<svg id="Camada_2" xmlns="http://www.w3.org/2000/svg" viewBox="0 0 346.84 132.59">
  <defs>
    <style>
      .cls-1 {
        fill: #FFFFFF;
      }
    </style>
  </defs>
  <g id="Camada_1-2" data-name="Camada_1">
    <g>
      <g>
        <g>
          <path class="cls-1" d="M141.04,44.23l-12.28,27.14h-.28l-12.23-27.14h4.44l7.92,18,7.95-18h4.47Z"/>
          <path class="cls-1" d="M143.99,44.23h4.17v26.6h-4.17v-26.6Z"/>
          <path class="cls-1" d="M169.94,48.37h-7.13v22.46h-4.19v-22.46h-7.13v-4.14h18.45v4.14Z"/>
          <path class="cls-1" d="M186.69,66.78h-12.59l-1.82,4.04h-4.52l12.51-27.14h.25l12.51,27.14h-4.52l-1.82-4.04ZM185.08,63.2l-4.67-10.39-4.69,10.39h9.36Z"/>
          <path class="cls-1" d="M212.01,66.66v4.16h-16.04v-26.6h4.17v22.44h11.86Z"/>
          <path class="cls-1" d="M223.96,57.54c0-7.49,6.25-13.78,13.73-13.78,3.45.05,6.63,1.52,9.24,4.06l-2.43,3.28c-1.86-1.86-4.29-3.1-6.9-3.1-4.82,0-9.42,4.22-9.42,9.55s4.67,9.5,9.44,9.5c2.72,0,5.07-1.35,6.9-3.17l2.41,3.37c-2.29,2.26-5.21,3.99-9.17,3.99-7.54,0-13.79-6.2-13.79-13.71Z"/>
          <path class="cls-1" d="M247.83,57.56c0-7.59,6.17-13.79,13.74-13.79s13.76,6.2,13.76,13.79-6.2,13.69-13.78,13.69-13.73-6.17-13.73-13.69ZM271.11,57.52c0-5.26-4.31-9.55-9.55-9.55s-9.52,4.29-9.52,9.55,4.27,9.5,9.52,9.5,9.55-4.27,9.55-9.5Z"/>
          <path class="cls-1" d="M300.54,44.16v27.12h-.2l-17.01-17.77v17.34h-4.17v-27.09h.21l16.98,17.74v-17.34h4.19Z"/>
          <path class="cls-1" d="M322.31,48.37h-7.13v22.46h-4.19v-22.46h-7.13v-4.14h18.45v4.14Z"/>
          <path class="cls-1" d="M339.06,66.78h-12.59l-1.82,4.04h-4.52l12.51-27.14h.25l12.51,27.14h-4.52l-1.82-4.04ZM337.45,63.2l-4.67-10.39-4.69,10.39h9.36Z"/>
        </g>
        <g>
          <path class="cls-1" d="M126.37,88.04c0,2.16-1.57,3.52-3.45,3.52-2.11,0-3.79-1.68-3.79-3.74s1.68-3.76,3.74-3.76c.91,0,1.96.45,2.64,1.11l-.63.95c-.57-.56-1.33-.91-2.02-.91-1.32,0-2.57,1.11-2.57,2.61,0,1.42,1.13,2.59,2.68,2.59,1.25,0,2.18-.76,2.18-1.87v-.02h-2.25v-1.04h3.43c.02.17.03.36.03.57Z"/>
          <path class="cls-1" d="M128.55,85.3v1.86h2.75v1.13h-2.75v2.01h3.18v1.13h-4.32v-7.26h4.32v1.12h-3.18Z"/>
          <path class="cls-1" d="M132.49,90.16l.9-.64c.32.57.93.89,1.62.89.81,0,1.43-.39,1.43-.95,0-.67-.95-1.08-1.8-1.44-.85-.38-1.8-.82-1.8-1.96s1.03-2.02,2.34-2.02c1.04,0,1.81.5,2.11,1.3l-.85.59c-.23-.49-.72-.77-1.25-.77-.67,0-1.2.41-1.2.93,0,.57.67.77,1.55,1.15,1.15.5,2.04,1.06,2.04,2.2,0,1.29-1.12,2.12-2.59,2.12-1.19,0-2.1-.56-2.51-1.4Z"/>
          <path class="cls-1" d="M143.11,85.31h-1.94v6.13h-1.14v-6.13h-1.94v-1.13h5.03v1.13Z"/>
          <path class="cls-1" d="M148.58,90.34h-3.43l-.49,1.1h-1.23l3.41-7.4h.07l3.41,7.4h-1.23l-.5-1.1ZM145.66,83.45l-.56-.22c.18-.83.75-.97,1.09-.97.68,0,.89.61,1.36.61.28,0,.44-.23.53-.59l.56.22c-.18.83-.75.97-1.09.97-.68,0-.89-.61-1.36-.61-.28,0-.44.23-.53.59ZM148.14,89.36l-1.27-2.84-1.28,2.84h2.55Z"/>
          <path class="cls-1" d="M150.77,87.82c0-2.07,1.68-3.76,3.75-3.76s3.75,1.69,3.75,3.76-1.69,3.74-3.76,3.74-3.74-1.68-3.74-3.74ZM157.12,87.81c0-1.44-1.18-2.61-2.61-2.61s-2.6,1.17-2.6,2.61,1.17,2.59,2.6,2.59,2.61-1.17,2.61-2.59Z"/>
          <path class="cls-1" d="M163.15,85.3v1.86h2.75v1.13h-2.75v2.01h3.18v1.13h-4.32v-7.26h4.32v1.12h-3.18Z"/>
          <path class="cls-1" d="M174.62,84.03v7.41h-1.14v-4.02l-2.41,3.9h0l-2.41-3.91v4.03h-1.14v-7.41h.09l3.47,5.27,3.47-5.27h.09Z"/>
          <path class="cls-1" d="M176.01,84.18h2.43c1.4,0,2.55,1.08,2.55,2.39s-1.15,2.35-2.55,2.35h-1.29v2.52h-1.14v-7.26ZM179.85,86.57c0-.69-.63-1.26-1.41-1.26h-1.29v2.48h1.29c.78,0,1.41-.54,1.41-1.22Z"/>
          <path class="cls-1" d="M185.87,91.44l-1.95-2.81h-.89v2.81h-1.14v-7.26s2.25,0,2.25,0c1.35,0,2.46,1.04,2.46,2.33,0,.94-.6,1.75-1.44,2.02l2.11,2.9h-1.4ZM184.17,87.68c.68,0,1.26-.55,1.26-1.2s-.58-1.18-1.26-1.18h-1.14v2.37h1.14Z"/>
          <path class="cls-1" d="M189.17,85.3v1.86h2.75v1.13h-2.75v2.01h3.18v1.13h-4.32v-7.26h4.32v1.12h-3.18Z"/>
          <path class="cls-1" d="M193.12,90.16l.9-.64c.32.57.93.89,1.62.89.81,0,1.43-.39,1.43-.95,0-.67-.95-1.08-1.8-1.44-.85-.38-1.8-.82-1.8-1.96s1.03-2.02,2.34-2.02c1.04,0,1.81.5,2.11,1.3l-.85.59c-.23-.49-.72-.77-1.25-.77-.67,0-1.2.41-1.2.93,0,.57.67.77,1.55,1.15,1.15.5,2.04,1.06,2.04,2.2,0,1.29-1.12,2.12-2.59,2.12-1.19,0-2.1-.56-2.51-1.4Z"/>
          <path class="cls-1" d="M203.4,90.34h-3.43l-.49,1.1h-1.23l3.41-7.4h.07l3.41,7.4h-1.23l-.5-1.1ZM202.96,89.36l-1.27-2.84-1.28,2.84h2.55Z"/>
          <path class="cls-1" d="M209.92,91.44l-1.95-2.81h-.89v2.81h-1.14v-7.26s2.25,0,2.25,0c1.35,0,2.46,1.04,2.46,2.33,0,.94-.6,1.75-1.44,2.02l2.11,2.9h-1.4ZM208.21,87.68c.68,0,1.26-.55,1.26-1.2s-.58-1.18-1.26-1.18h-1.14v2.37h1.14Z"/>
          <path class="cls-1" d="M212.08,84.18h1.14v7.26h-1.14v-7.26Z"/>
          <path class="cls-1" d="M219.18,90.34h-3.43l-.49,1.1h-1.23l3.41-7.4h.07l3.41,7.4h-1.23l-.5-1.1ZM218.74,89.36l-1.27-2.84-1.28,2.84h2.55Z"/>
          <path class="cls-1" d="M226.08,90.3v1.13h-4.37v-7.26h1.14v6.12h3.24Z"/>
          <path class="cls-1" d="M230.83,85.3v1.86h2.75v1.13h-2.75v2.01h3.18v1.13h-4.32v-7.26h4.32v1.12h-3.18Z"/>
          <path class="cls-1" d="M242.46,90.34h-3.43l-.49,1.1h-1.23l3.41-7.4h.07l3.41,7.4h-1.23l-.5-1.1ZM242.02,89.36l-1.27-2.84-1.28,2.84h2.55Z"/>
          <path class="cls-1" d="M244.34,90.16l.9-.64c.32.57.93.89,1.62.89.81,0,1.43-.39,1.43-.95,0-.67-.95-1.08-1.8-1.44-.85-.38-1.8-.82-1.8-1.96s1.03-2.02,2.34-2.02c1.04,0,1.81.5,2.11,1.3l-.85.59c-.23-.49-.72-.77-1.25-.77-.67,0-1.2.41-1.2.93,0,.57.67.77,1.55,1.15,1.15.5,2.04,1.06,2.04,2.2,0,1.29-1.12,2.12-2.59,2.12-1.19,0-2.1-.56-2.51-1.4Z"/>
          <path class="cls-1" d="M250,90.16l.9-.64c.32.57.93.89,1.62.89.81,0,1.43-.39,1.43-.95,0-.67-.95-1.08-1.8-1.44-.85-.38-1.8-.82-1.8-1.96s1.03-2.02,2.34-2.02c1.04,0,1.81.5,2.11,1.3l-.85.59c-.23-.49-.72-.77-1.25-.77-.67,0-1.2.41-1.2.93,0,.57.67.77,1.55,1.15,1.15.5,2.04,1.06,2.04,2.2,0,1.29-1.12,2.12-2.59,2.12-1.19,0-2.1-.56-2.51-1.4Z"/>
          <path class="cls-1" d="M257.21,85.3v1.86h2.75v1.13h-2.75v2.01h3.18v1.13h-4.32v-7.26h4.32v1.12h-3.18Z"/>
          <path class="cls-1" d="M261.15,90.16l.9-.64c.32.57.93.89,1.62.89.81,0,1.43-.39,1.43-.95,0-.67-.95-1.08-1.8-1.44-.85-.38-1.8-.82-1.8-1.96s1.03-2.02,2.34-2.02c1.04,0,1.81.5,2.11,1.3l-.85.59c-.23-.49-.72-.77-1.25-.77-.67,0-1.2.41-1.2.93,0,.57.67.77,1.55,1.15,1.15.5,2.04,1.06,2.04,2.2,0,1.29-1.12,2.12-2.59,2.12-1.19,0-2.1-.56-2.51-1.4Z"/>
          <path class="cls-1" d="M266.81,90.16l.9-.64c.32.57.93.89,1.62.89.81,0,1.43-.39,1.43-.95,0-.67-.95-1.08-1.8-1.44-.85-.38-1.8-.82-1.8-1.96s1.03-2.02,2.34-2.02c1.04,0,1.81.5,2.11,1.3l-.85.59c-.23-.49-.72-.77-1.25-.77-.67,0-1.2.41-1.2.93,0,.57.67.77,1.55,1.15,1.15.5,2.04,1.06,2.04,2.2,0,1.29-1.12,2.12-2.59,2.12-1.19,0-2.1-.56-2.51-1.4Z"/>
          <path class="cls-1" d="M272.54,87.82c0-2.07,1.68-3.76,3.75-3.76s3.75,1.69,3.75,3.76-1.69,3.74-3.76,3.74-3.74-1.68-3.74-3.74ZM278.89,87.81c0-1.44-1.18-2.61-2.61-2.61s-2.6,1.17-2.6,2.61,1.17,2.59,2.6,2.59,2.61-1.17,2.61-2.59Z"/>
          <path class="cls-1" d="M285.07,91.44l-1.95-2.81h-.89v2.81h-1.14v-7.26s2.25,0,2.25,0c1.35,0,2.46,1.04,2.46,2.33,0,.94-.6,1.75-1.44,2.02l2.11,2.9h-1.4ZM283.36,87.68c.68,0,1.26-.55,1.26-1.2s-.58-1.18-1.26-1.18h-1.14v2.37h1.14Z"/>
          <path class="cls-1" d="M287.23,84.18h1.14v7.26h-1.14v-7.26Z"/>
          <path class="cls-1" d="M294.33,90.34h-3.43l-.49,1.1h-1.23l3.41-7.4h.07l3.41,7.4h-1.23l-.5-1.1ZM293.89,89.36l-1.27-2.84-1.28,2.84h2.55Z"/>
          <path class="cls-1" d="M299.21,87.82c0-2.04,1.71-3.76,3.74-3.76.94.01,1.81.41,2.52,1.11l-.66.9c-.51-.51-1.17-.85-1.88-.85-1.31,0-2.57,1.15-2.57,2.61s1.27,2.59,2.57,2.59c.74,0,1.38-.37,1.88-.86l.66.92c-.63.62-1.42,1.09-2.5,1.09-2.06,0-3.76-1.69-3.76-3.74Z"/>
          <path class="cls-1" d="M305.72,87.82c0-2.07,1.68-3.76,3.75-3.76s3.75,1.69,3.75,3.76-1.69,3.74-3.76,3.74-3.74-1.68-3.74-3.74ZM312.07,87.81c0-1.44-1.18-2.61-2.61-2.61s-2.6,1.17-2.6,2.61,1.17,2.59,2.6,2.59,2.61-1.17,2.61-2.59Z"/>
          <path class="cls-1" d="M320.09,84.16v7.4h-.05l-4.64-4.85v4.73h-1.14v-7.39h.06l4.63,4.84v-4.73h1.14Z"/>
          <path class="cls-1" d="M326.03,85.31h-1.94v6.13h-1.14v-6.13h-1.94v-1.13h5.03v1.13Z"/>
          <path class="cls-1" d="M331.5,90.34h-3.43l-.49,1.1h-1.23l3.41-7.4h.07l3.41,7.4h-1.23l-.5-1.1ZM331.06,89.36l-1.27-2.84-1.28,2.84h2.55Z"/>
          <path class="cls-1" d="M329.92,83.58h-.82l.89-1.47h1l-1.07,1.47Z"/>
          <path class="cls-1" d="M339.03,89.23c0,1.11-.84,2.21-2.28,2.21h-2.71v-7.26h1.98c1.25,0,2.1.9,2.1,1.86,0,.78-.54,1.31-.81,1.31.81,0,1.73.75,1.73,1.88ZM335.17,85.29v1.81h.9c.56,0,.98-.39.98-.9s-.45-.9-.96-.9h-.91ZM337.92,89.15c0-.55-.47-1.05-1.29-1.05h-1.46v2.23h1.48c.65,0,1.27-.47,1.27-1.18Z"/>
          <path class="cls-1" d="M339.93,84.18h1.14v7.26h-1.14v-7.26Z"/>
          <path class="cls-1" d="M346.84,90.3v1.13h-4.37v-7.26h1.14v6.12h3.24Z"/>
        </g>
        <path class="cls-1" d="M88.67,97.79c-6.29,4.42-13.97,7.01-22.22,7.1-21.76-.15-38.76-17.48-38.67-38.82.09-21.46,17.47-39.19,39.93-38.46,9.92.32,18.97,4.36,25.66,10.87,6.57-6.57,14.51-11.55,21.08-18.13-1.2-1.22-3.77-4.04-4.97-5.25-.72-.73-1.35-.77-2.28-.26-3.65,2.02-7.29,4.04-10.95,6.05-.76.42-1.56.51-2.35.08-.99-.55-1.98-1.1-2.94-1.71-.66-.42-1.04-1.05-1.05-1.85l-.37-12.75c0-.85-.49-1.45-1.25-1.65-4.1-1.1-8.24-2.1-12.4-2.94-.77-.16-1.48.08-1.89.85-1.1,2.05-2.18,4.1-3.29,6.14-.93,1.72-1.86,3.44-2.8,5.15-.28.52-.62,1-1.3,1.03-1.37.06-2.74.14-4.12.16-.84,0-1.51-.32-1.97-1.1-.38-.66-.88-1.24-1.32-1.87-1.85-2.67-3.72-5.32-5.54-8.02-.79-1.16-1.52-1.51-2.88-1.09-1.16.36-2.31.76-3.46,1.15-2.58.87-5.16,1.74-7.73,2.62-.78.27-1.18.85-1.19,1.69-.02,1.56.14,3.11.27,4.66.22,2.66.46,5.31.69,7.97.07.84-.25,1.45-.92,1.98-1.14.9-2.38,1.66-3.56,2.5-.8.57-1.56.56-2.38.22-3.87-1.61-7.74-3.24-11.61-4.85-.77-.32-1.48-.23-2.12.39-.42.41-.76.88-1.12,1.33-2.13,2.66-4.26,5.31-6.39,7.97-.55.68-.62,1.49-.15,2.12,1.18,1.59,2.4,3.15,3.6,4.73,1.34,1.77,2.68,3.53,4,5.32.5.68.61,1.47.3,2.26-.6,1.55-1.26,3.08-1.89,4.61-.36.89-1.07,1.38-1.96,1.56-2.36.46-4.74.74-7.09,1.27-1.62.37-3.28.53-4.92.84-1.17.22-1.9.85-2.07,2.15-.11.83-.2,1.67-.32,2.51C.33,59.29.02,62.31,0,65.36c0,.63.22.95.81,1.16,4.03,1.43,8.05,2.89,12.07,4.34.81.29,1.3.84,1.44,1.72.3,1.82.76,3.61,1.04,5.45.17,1.16-.06,2.06-.95,2.84-1.11.98-2.18,2-3.26,3.01-1.83,1.71-3.65,3.44-5.5,5.13-.82.75-1.04,1.44-.59,2.46.24.53.54,1.03.8,1.55,1.37,2.71,2.73,5.42,4.12,8.12.51,1,1.23,1.3,2.31,1.06,3.89-.87,7.78-1.74,11.67-2.65,1.11-.26,2.02-.04,2.8.79,1.26,1.35,2.47,2.76,3.82,4.02.99.92,1.11,1.9.75,3.07-.17.55-.35,1.11-.47,1.68-.74,3.24-1.58,6.46-2.47,9.67-.28.99-.07,1.76.8,2.35.65.44,1.38.77,2.07,1.16,2.51,1.41,5,2.85,7.52,4.23.79.43,1.62.31,2.28-.32,1.27-1.23,2.45-2.54,3.72-3.78,1.76-1.71,3.44-3.5,5.17-5.24.47-.46,1.1-.7,1.75-.57,2.22.45,4.47.83,6.65,1.46.7.2,1.27.6,1.46,1.33.39,1.49.98,2.9,1.45,4.36.82,2.51,1.64,5.02,2.48,7.52.27.8.85,1.28,1.71,1.31,3.76.11,7.5-.22,11.22-.71.88-.12,1.49-.64,1.74-1.61.66-2.48.97-5.03,1.6-7.51.41-1.64.68-3.31,1.05-4.96.16-.72.55-1.29,1.31-1.57,1.78-.66,3.55-1.35,5.33-2.01.74-.27,1.51-.41,2.19.12.94.72,1.85,1.49,2.77,2.23,2.37,1.9,4.73,3.81,7.11,5.7.81.64,1.41.64,2.25.07.72-.49,1.39-1.04,2.09-1.57,1.43-1.08,2.86-2.15,4.29-3.23l-19.72-19.72Z"/>
      </g>
      <g>
        <polygon class="cls-1" points="66.66 94.52 53.56 57.4 49.26 69.98 26.04 69.69 26.06 67.63 47.79 67.9 53.53 51.13 66.67 88.36 79.06 53.73 81 54.43 66.66 94.52"/>
        <polygon class="cls-1" points="75.84 54.01 84.21 56.57 83.2 46.71 75.84 54.01"/>
      </g>
    </g>
  </g>
</svg>
